<?xml version="1.0" encoding="utf-8"?>
<!-- Generator: Adobe Illustrator 16.0.0, SVG Export Plug-In . SVG Version: 6.00 Build 0)  -->
<!DOCTYPE svg PUBLIC "-//W3C//DTD SVG 1.1//EN" "http://www.w3.org/Graphics/SVG/1.1/DTD/svg11.dtd">
<svg version="1.1" id="Layer_1" xmlns="http://www.w3.org/2000/svg" xmlns:xlink="http://www.w3.org/1999/xlink" x="0px" y="0px"
	 width="560px" height="200px" viewBox="0 0 560 200" enable-background="new 0 0 560 200" xml:space="preserve">
<rect display="none" opacity="0.3" width="560" height="200"/>
<g>
	<g>
		<path fill="none" stroke="#FF1D25" stroke-width="7" stroke-miterlimit="10" d="M41.425,95.779
			c4.983-1.898,11.624-3.762,18.733-5.196c11.819-2.385,19.903-1.774,26.625,1.331c7.205,3.328,12.453,9.783,14.168,20.006
			c1.859,11.082-1.042,19.692-5.961,25.163c-6.418,7.139-16.498,10.856-25.893,12.663c-6.834,1.314-11.875,2.052-15.282,2.356
			C49.687,133.328,45.555,114.554,41.425,95.779z M65.202,139.697c1.199,0.02,3.076-0.398,4.727-0.699
			c11.776-2.146,18.5-12.488,16.471-24.091c-1.902-10.879-12.136-16.993-22.761-14.63c-3.032,0.674-5.07,1.296-6.205,1.797
			C60.023,114.615,62.609,127.157,65.202,139.697z"/>
		<path fill="none" stroke="#FF1D25" stroke-width="7" stroke-miterlimit="10" d="M151.598,110.613
			c-8.963,1.079-13.441,1.663-22.386,2.93c0.782,5.52,1.171,8.28,1.953,13.8c9.862-1.396,14.801-2.036,24.685-3.201
			c0.51,4.325,0.764,6.488,1.274,10.813c-12.664,1.487-25.302,3.209-37.902,5.165c-2.988-19.341-5.987-38.68-8.979-58.02
			c12.869-1.991,25.772-3.757,38.703-5.298c0.515,4.325,0.771,6.487,1.287,10.812c-9.709,1.156-14.559,1.787-24.247,3.159
			c0.684,4.83,1.026,7.246,1.71,12.075c9.034-1.279,13.556-1.873,22.609-2.962C150.822,104.177,151.082,106.323,151.598,110.613z"/>
		<path fill="none" stroke="#FF1D25" stroke-width="7" stroke-miterlimit="10" d="M164.61,75.05
			c5.711-0.598,8.567-0.878,14.284-1.402c1.447,15.787,2.893,31.574,4.346,47.36c9.585-0.879,14.382-1.265,23.98-1.928
			c0.307,4.449,0.459,6.673,0.767,11.122c-12.438,0.859-24.861,1.938-37.261,3.236C168.688,113.976,166.646,94.513,164.61,75.05z"/>
		<path fill="none" stroke="#FF1D25" stroke-width="7" stroke-miterlimit="10" d="M231.359,70.079
			c0.861,19.55,1.736,39.1,2.598,58.65c-5.428,0.24-8.142,0.379-13.567,0.689c-1.112-19.538-2.239-39.075-3.353-58.612
			C222.764,70.479,225.629,70.333,231.359,70.079z"/>
		<path fill="none" stroke="#FF1D25" stroke-width="7" stroke-miterlimit="10" d="M294.055,126.125
			c-2.505,1.188-8.18,2.352-15.372,2.443c-17.127,0.218-31.63-11.154-32.231-28.815c-0.649-19.074,15.299-31.806,33.519-31.727
			c7.371,0.032,13.022,1.458,15.531,2.711c-1.216,4.2-1.819,6.302-3.014,10.506c-2.86-1.163-6.916-2.172-11.859-2.24
			c-11.163-0.155-19.851,8.409-19.61,19.603c0.233,10.859,8.748,19.177,19.704,18.987c4.051-0.07,8.693-0.842,11.397-1.858
			C292.901,119.889,293.289,121.969,294.055,126.125z"/>
		<path fill="none" stroke="#FF1D25" stroke-width="7" stroke-miterlimit="10" d="M323.154,69.792
			c-0.752,19.556-1.484,39.112-2.239,58.667c-5.429-0.207-8.144-0.293-13.574-0.43c0.498-19.563,0.985-39.127,1.485-58.69
			C314.559,69.484,317.424,69.574,323.154,69.792z"/>
		<path fill="none" stroke="#FF1D25" stroke-width="7" stroke-miterlimit="10" d="M394.834,103.743
			c-1.739,16.948-15.25,29.41-32.509,28.068c-16.483-1.281-27.344-15.535-26.55-31.638c0.851-17.249,14.974-30.039,32.272-28.723
			C384.967,72.737,396.553,86.997,394.834,103.743z M350.456,100.757c-0.553,11.308,4.287,19.89,13.402,20.604
			c9.203,0.721,15.25-7.267,16.296-18.63c0.966-10.496-3.62-20.094-13.305-20.802C356.353,81.161,350.899,91.692,350.456,100.757z"
			/>
		<path fill="none" stroke="#FF1D25" stroke-width="7" stroke-miterlimit="10" d="M426.002,78.495
			c-1.47,11.169-2.939,22.339-4.407,33.509c-1.317,10.019,1.931,15.615,8.864,16.6c7.111,1.01,11.755-3.2,13.318-13.447
			c1.7-11.138,3.399-22.275,5.1-33.413c5.647,0.862,8.469,1.312,14.107,2.246c-1.794,10.828-3.59,21.655-5.385,32.483
			c-2.104,15.263-13.847,24.723-29.074,22.587c-15.3-2.146-22.842-14.879-20.627-29.818c1.282-10.842,2.567-21.684,3.852-32.526
			C417.454,77.39,420.305,77.746,426.002,78.495z"/>
		<path fill="none" stroke="#FF1D25" stroke-width="7" stroke-miterlimit="10" d="M472.242,131.31
			c3.313,2.463,8.543,5.299,14.285,6.429c6.183,1.217,9.956-0.574,10.73-4.328c0.739-3.583-1.685-6.28-8.439-10.138
			c-9.314-5.319-15.093-11.872-13.515-20.179c2.295-12.085,16.305-15.189,26.728-12.892c6.874,1.515,11.894,3.894,15.237,6.226
			c-2.161,3.916-3.233,5.873-5.371,9.798c-2.221-1.635-6.266-4.188-12.303-5.408s-9.466,0.791-10.045,3.784
			c-0.712,3.678,2.454,5.996,9.722,10.372c9.912,5.969,13.797,12.371,12.021,20.452c-2.75,12.507-16.943,15.119-27.653,12.843
			c-6.605-1.404-13.071-4.255-16.089-6.654C469.415,137.488,470.354,135.429,472.242,131.31z"/>
	</g>
</g>
<g>
	<g>
		<path fill="#FF1D25" d="M146.116,54.208c2.264,0.981,5.566,1.696,8.918,1.354c4.204-0.429,6.357-2.607,6.076-5.514
			c-0.261-2.696-2.232-4.113-7.015-5.28c-6.173-1.506-10.339-4.191-10.902-9.311c-0.638-5.806,3.891-10.806,11.858-11.599
			c3.984-0.396,7.012,0.174,9.008,0.949c-0.46,2.154-0.689,3.23-1.144,5.385c-1.368-0.565-4.019-1.328-7.442-0.987
			c-4.239,0.422-5.854,2.841-5.638,4.9c0.287,2.746,2.552,3.819,7.566,5.154c6.492,1.728,9.878,4.555,10.347,9.685
			c0.521,5.711-3.374,11.051-12.592,11.996c-3.761,0.385-7.792-0.246-9.883-1.19C145.607,57.533,145.776,56.424,146.116,54.208z"/>
		<path fill="#FF1D25" d="M196.155,40.984c-5.466,0.371-8.198,0.571-13.661,1.002c0.331,4.192,0.496,6.29,0.827,10.482
			c6.057-0.478,9.087-0.7,15.147-1.103c0.143,2.141,0.213,3.212,0.356,5.353c-8.647,0.576-12.97,0.901-21.609,1.629
			c-1-11.888-2.008-23.775-3.005-35.663c8.562-0.722,12.846-1.046,21.416-1.622c0.144,2.141,0.214,3.211,0.358,5.352
			c-5.856,0.394-8.783,0.607-14.636,1.069c0.291,3.685,0.436,5.526,0.727,9.211c5.486-0.433,8.229-0.634,13.719-1.007
			C195.939,37.806,196.011,38.865,196.155,40.984z"/>
		<path fill="#FF1D25" d="M205.113,20.938c2.489-0.574,6.245-1.107,10.129-1.308c5.307-0.274,8.961,0.425,11.503,2.328
			c2.083,1.559,3.333,4.007,3.454,7.031c0.186,4.616-2.876,7.874-6.216,9.248c0.003,0.064,0.005,0.096,0.008,0.16
			c2.63,0.837,4.322,3.277,5.352,6.675c1.327,4.379,2.43,8.512,3.229,9.863c-2.701,0.105-4.052,0.162-6.752,0.283
			c-0.579-1.037-1.588-3.933-2.784-8.325c-1.25-4.591-3.029-6.028-6.8-5.94c-1.334,0.069-2,0.104-3.334,0.177
			c0.32,5.875,0.48,8.813,0.8,14.688c-2.594,0.141-3.891,0.215-6.484,0.37C206.516,44.438,205.813,32.688,205.113,20.938z
			 M212.642,36.359c1.577-0.086,2.364-0.128,3.941-0.209c4.481-0.23,7.185-2.686,7.023-6.24c-0.179-3.926-3.095-5.607-7.455-5.384
			c-2.125,0.109-3.481,0.344-4.126,0.539C212.271,29.583,212.396,31.841,212.642,36.359z"/>
		<path fill="#FF1D25" d="M245.679,18.687c0.325,11.926,0.659,23.852,0.986,35.778c-2.617,0.072-3.924,0.112-6.541,0.198
			c-0.391-11.924-0.787-23.848-1.177-35.771C241.639,18.803,242.986,18.761,245.679,18.687z"/>
		<path fill="#FF1D25" d="M288.761,35.753c-0.009,9.894-6.867,18.854-17.299,18.86c-10.036,0.006-16.545-7.568-16.864-17.975
			c-0.307-10.013,6.769-18.868,17.135-18.986C281.871,17.536,288.77,26.117,288.761,35.753z M261.608,36.404
			c0.111,7.273,3.886,12.996,10.188,12.95c6.356-0.046,9.939-5.873,9.945-13.36c0.006-6.744-3.427-13.134-10.137-13.085
			C264.95,22.957,261.495,29.024,261.608,36.404z"/>
		<path fill="#FF1D25" d="M304.092,18.419c-0.153,8.346-0.232,12.52-0.386,20.866c-0.129,7.008,2.75,10.298,7.181,10.406
			c4.753,0.116,7.682-3.031,7.896-10.037c0.255-8.344,0.383-12.516,0.638-20.86c2.692,0.082,4.037,0.126,6.729,0.223
			c-0.293,8.172-0.439,12.259-0.732,20.431c-0.396,11.038-6.259,15.7-14.871,15.491c-8.296-0.201-13.605-4.873-13.458-16.129
			c0.107-8.198,0.163-12.299,0.271-20.497C300.052,18.348,301.398,18.369,304.092,18.419z"/>
		<path fill="#FF1D25" d="M335.174,48.077c2.086,1.314,5.238,2.522,8.601,2.693c4.216,0.215,6.675-1.61,6.839-4.526
			c0.152-2.704-1.581-4.403-6.126-6.284c-5.867-2.427-9.571-5.716-9.349-10.861c0.253-5.836,5.484-10.089,13.473-9.661
			c3.995,0.214,6.899,1.237,8.752,2.307c-0.782,2.059-1.171,3.089-1.947,5.15c-1.266-0.767-3.769-1.925-7.201-2.109
			c-4.251-0.228-6.211,1.917-6.312,3.986c-0.134,2.758,1.938,4.164,6.688,6.246c6.147,2.695,9.065,6.004,8.748,11.145
			c-0.354,5.724-5.018,10.41-14.262,9.941c-3.773-0.191-7.656-1.43-9.576-2.681C334.169,51.284,334.501,50.216,335.174,48.077z"/>
		<path fill="#FF1D25" d="M367.718,21.192c2.688,0.185,4.031,0.28,6.72,0.479c-0.745,10.08-1.494,20.159-2.239,30.239
			c5.909,0.438,8.862,0.674,14.768,1.183c-0.188,2.18-0.282,3.27-0.47,5.45c-8.489-0.731-12.738-1.061-21.236-1.645
			C366.077,44.996,366.892,33.093,367.718,21.192z"/>
		<path fill="#FF1D25" d="M397.582,59.547c0.565-5.942,0.851-8.913,1.416-14.855c-3.781-8.746-5.714-13.111-9.65-21.828
			c3.059,0.263,4.59,0.399,7.646,0.681c1.431,3.822,2.14,5.735,3.545,9.561c0.992,2.762,1.713,4.859,2.445,7.386
			c0.043,0.004,0.065,0.005,0.108,0.01c1.139-2.183,2.384-4.3,3.89-6.763c2.123-3.479,3.188-5.217,5.337-8.688
			c3.031,0.316,4.548,0.479,7.578,0.813c-5.793,7.695-8.647,11.559-14.284,19.318c-0.604,6.002-0.906,9.003-1.51,15.005
			C401.495,59.924,400.191,59.796,397.582,59.547z"/>
	</g>
</g>
<!-- <text transform="matrix(1 0 0 1 167.5 176.7246)" fill="#FF1D25" font-family="NotoSans Regular" font-size="39.1511" letter-spacing="1">SMOOTHIES</text> -->
</svg>
